<svg xmlns="http://www.w3.org/2000/svg" xmlns:xlink="http://www.w3.org/1999/xlink" width="500" zoomAndPan="magnify" viewBox="0 0 375 374.999991" height="500" preserveAspectRatio="xMidYMid meet" version="1.0"><defs><g/><clipPath id="29e09b0249"><path d="M 184 107.0625 L 191 107.0625 L 191 123 L 184 123 Z M 184 107.0625 " clip-rule="nonzero"/></clipPath><clipPath id="191d0728d9"><rect x="0" width="127" y="0" height="17"/></clipPath></defs><rect x="-37.5" width="450" fill="#ffffff" y="-37.499999" height="449.999989" fill-opacity="1"/><rect x="-37.5" width="450" fill="#2a2a2a" y="-37.499999" height="449.999989" fill-opacity="1"/><g fill="#fffdfa" fill-opacity="1"><g transform="translate(101.500692, 229.502709)"><g><path d="M 4.015625 -18.671875 C 4.015625 -22.878906 4.859375 -26.554688 6.546875 -29.703125 C 8.242188 -32.859375 10.609375 -35.3125 13.640625 -37.0625 C 16.671875 -38.8125 20.195312 -39.6875 24.21875 -39.6875 C 26.78125 -39.6875 29.160156 -39.421875 31.359375 -38.890625 C 33.566406 -38.359375 35.179688 -37.660156 36.203125 -36.796875 L 36.265625 -34.84375 C 36.109375 -34.84375 35.953125 -34.832031 35.796875 -34.8125 C 35.640625 -34.800781 35.484375 -34.796875 35.328125 -34.796875 C 34.804688 -35.109375 34.257812 -35.429688 33.6875 -35.765625 C 33.125 -36.097656 32.585938 -36.40625 32.078125 -36.6875 L 31.71875 -36.859375 C 29.4375 -37.722656 26.957031 -38.15625 24.28125 -38.15625 C 20.769531 -38.15625 17.703125 -37.375 15.078125 -35.8125 C 12.460938 -34.257812 10.425781 -32.085938 8.96875 -29.296875 C 7.519531 -26.503906 6.796875 -23.234375 6.796875 -19.484375 C 6.796875 -15.785156 7.492188 -12.546875 8.890625 -9.765625 C 10.285156 -6.992188 12.234375 -4.828125 14.734375 -3.265625 C 17.234375 -1.710938 20.140625 -0.9375 23.453125 -0.9375 C 26.597656 -0.9375 29.570312 -1.472656 32.375 -2.546875 C 32.375 -2.546875 32.644531 -2.691406 33.1875 -2.984375 C 33.738281 -3.273438 34.3125 -3.578125 34.90625 -3.890625 C 35.5 -4.210938 35.832031 -4.394531 35.90625 -4.4375 L 36.734375 -4.546875 L 36.625 -2.59375 C 35.28125 -1.6875 33.40625 -0.945312 31 -0.375 C 28.601562 0.1875 26.066406 0.46875 23.390625 0.46875 C 19.535156 0.46875 16.148438 -0.328125 13.234375 -1.921875 C 10.316406 -3.515625 8.050781 -5.75 6.4375 -8.625 C 4.820312 -11.5 4.015625 -14.847656 4.015625 -18.671875 Z M 4.015625 -18.671875 "/></g></g></g><g fill="#fffdfa" fill-opacity="1"><g transform="translate(143.553516, 229.502709)"><g><path d="M 10.046875 -15 C 9.054688 -12.71875 8.097656 -10.414062 7.171875 -8.09375 C 6.242188 -5.769531 5.289062 -3.445312 4.3125 -1.125 C 4.269531 -1.082031 4.207031 -0.894531 4.125 -0.5625 C 4.050781 -0.226562 4.035156 -0.0625 4.078125 -0.0625 L 1.828125 -0.0625 C 1.828125 -0.0625 1.863281 -0.1875 1.9375 -0.4375 C 2.019531 -0.695312 2.082031 -0.925781 2.125 -1.125 L 3.078125 -3.015625 C 4.210938 -5.734375 6.050781 -10.101562 8.59375 -16.125 C 11.132812 -22.144531 14.140625 -29.332031 17.609375 -37.6875 L 18.3125 -39.34375 L 19.609375 -39.34375 L 35.078125 -2.65625 L 35.859375 -1 C 36.015625 -0.84375 36.101562 -0.644531 36.125 -0.40625 C 36.144531 -0.175781 36.15625 -0.0625 36.15625 -0.0625 L 33.140625 -0.0625 C 33.097656 -0.257812 33.066406 -0.453125 33.046875 -0.640625 C 33.023438 -0.835938 32.976562 -1.019531 32.90625 -1.1875 L 27.171875 -15 Z M 18.484375 -35.5 C 16.992188 -31.914062 15.585938 -28.546875 14.265625 -25.390625 C 12.941406 -22.242188 11.726562 -19.332031 10.625 -16.65625 L 26.40625 -16.65625 Z M 18.484375 -35.5 "/></g></g></g><g fill="#fffdfa" fill-opacity="1"><g transform="translate(181.885373, 229.502709)"><g><path d="M 3.84375 -1.125 L 4.015625 -3.25 L 4.015625 -35.734375 L 3.84375 -37.859375 L 3.84375 -38.984375 L 6.859375 -38.984375 L 6.859375 -37.859375 L 6.671875 -35.734375 L 6.671875 -1.65625 L 23.796875 -1.65625 L 27.46875 -2.015625 L 28.53125 -2.015625 L 28.53125 0 L 3.84375 0 Z M 3.84375 -1.125 "/></g></g></g><g fill="#fffdfa" fill-opacity="1"><g transform="translate(214.547187, 229.502709)"><g><path d="M 5.203125 -37.859375 L 5.203125 -38.984375 L 8.203125 -38.984375 L 24.28125 -3.3125 L 40.046875 -38.984375 L 42.765625 -38.984375 L 42.765625 -37.859375 L 42.703125 -35.796875 L 43.953125 -3.25 L 44.1875 -1.125 L 44.1875 0 L 41.34375 0 L 41.34375 -1.125 L 41.40625 -3.1875 L 40.171875 -35.328125 L 24.328125 0.296875 L 22.984375 0.296875 L 6.90625 -35.625 L 5.609375 -3.125 L 5.671875 -1.125 L 5.671875 0 L 3.609375 0 L 3.609375 -1.125 L 3.84375 -3.25 C 4.113281 -8.6875 4.359375 -14.140625 4.578125 -19.609375 C 4.796875 -25.085938 5.019531 -30.5625 5.25 -36.03125 Z M 5.203125 -37.859375 "/></g></g></g><g fill="#fffdfa" fill-opacity="1"><g transform="translate(262.270053, 229.502709)"><g><path d="M 4.140625 -38.984375 L 7.140625 -38.984375 L 7.140625 -37.859375 L 6.96875 -35.734375 L 6.96875 -3.25 L 7.140625 -1.125 L 7.140625 0 L 4.140625 0 L 4.140625 -1.125 L 4.3125 -3.25 L 4.3125 -35.734375 L 4.140625 -37.859375 Z M 4.140625 -38.984375 "/></g></g></g><g clip-path="url(#29e09b0249)"><path fill="#fffdfa" d="M 187.5 122.488281 C 188.742188 122.488281 190.078125 120.859375 190.796875 114.242188 C 191.515625 107.625 189.132812 107.09375 187.5 107.09375 C 185.871094 107.09375 183.488281 107.625 184.203125 114.242188 C 184.921875 120.859375 186.261719 122.488281 187.5 122.488281 Z M 187.5 122.488281 " fill-opacity="1" fill-rule="nonzero"/></g><path fill="#fffdfa" d="M 168.960938 136.101562 C 172.40625 138.863281 173.5 139.582031 174.144531 143.742188 C 174.789062 147.902344 175.355469 149.984375 177.132812 152.632812 C 178.910156 155.277344 179.621094 157.113281 180.253906 159.140625 C 180.910156 161.238281 182.742188 161.78125 183.074219 159.566406 C 183.566406 156.285156 181.632812 151.988281 180.6875 150.023438 C 179.742188 148.054688 180.007812 145.21875 179.742188 141.132812 C 179.476562 137.046875 175.542969 132.738281 170.511719 128.992188 C 165.484375 125.25 166.050781 121.464844 165.898438 120.027344 C 165.746094 118.589844 164.234375 118.820312 164.234375 118.820312 C 162.117188 119.234375 160.527344 121.464844 161.585938 126.042969 C 162.648438 130.617188 165.519531 133.34375 168.960938 136.101562 Z M 168.960938 136.101562 " fill-opacity="1" fill-rule="nonzero"/><path fill="#fffdfa" d="M 148.8125 153.015625 C 153.167969 154.613281 155.382812 155.847656 157.738281 159.078125 C 160.097656 162.304688 161.765625 167.167969 166.808594 169.996094 C 171.851562 172.828125 176.933594 171.339844 177.441406 165.859375 C 177.949219 160.382812 173.667969 153.1875 168.515625 148.203125 C 163.363281 143.222656 158.394531 137.054688 156 133.390625 C 153.605469 129.726562 151.753906 124.464844 147.472656 125.007812 C 145.574219 125.25 143.226562 128.960938 148.050781 135.566406 C 152.878906 142.167969 158.101562 145.617188 162.019531 149.570312 C 165.9375 153.523438 171.019531 157.042969 172.46875 161.324219 C 173.921875 165.605469 172.832031 167.492188 170.765625 167.347656 C 168.695312 167.203125 165.9375 164.191406 162.78125 159.292969 C 159.625 154.394531 157.523438 148.097656 151.824219 144.824219 C 146.128906 141.550781 140.253906 142.785156 139.164062 145.796875 C 138.074219 148.808594 144.460938 151.421875 148.8125 153.015625 Z M 148.8125 153.015625 " fill-opacity="1" fill-rule="nonzero"/><path fill="#fffdfa" d="M 236.488281 154.9375 C 220.839844 154.429688 213.046875 174.742188 201.765625 174.492188 C 194.882812 174.339844 191.554688 168.667969 190.117188 161.027344 C 188.679688 153.386719 190.535156 148.621094 191.175781 142.796875 C 191.820312 136.972656 192.992188 134.515625 194.617188 132.019531 C 196.246094 129.523438 199.421875 126.269531 201.273438 120.972656 C 203.128906 115.679688 201.792969 110.816406 198.890625 110.726562 C 197.71875 110.6875 196.851562 112.011719 196.167969 114.015625 C 195.488281 116.019531 193.066406 122.070312 191.707031 125.285156 C 190.34375 128.5 187.5 136.632812 187.5 136.632812 C 187.5 136.632812 184.660156 128.5 183.296875 125.285156 C 181.9375 122.070312 179.515625 116.019531 178.835938 114.015625 C 178.152344 112.011719 177.285156 110.6875 176.109375 110.726562 C 173.210938 110.816406 171.875 115.679688 173.726562 120.972656 C 175.582031 126.269531 178.757812 129.523438 180.386719 132.019531 C 182.011719 134.515625 183.183594 136.972656 183.828125 142.796875 C 184.46875 148.621094 186.324219 153.386719 184.886719 161.027344 C 183.449219 168.667969 180.121094 174.339844 173.238281 174.492188 C 162.050781 174.738281 154.03125 154.433594 138.515625 154.9375 C 131.519531 155.164062 131.785156 159.097656 134.316406 160.839844 C 136.851562 162.578125 142.828125 164.128906 149.484375 168.023438 C 156.140625 171.921875 162.417969 175.742188 167.148438 177.554688 C 171.875 179.371094 181.230469 180.769531 187.5 172.261719 C 193.773438 180.769531 203.128906 179.371094 207.855469 177.554688 C 212.582031 175.742188 218.863281 171.921875 225.519531 168.023438 C 232.175781 164.128906 238.152344 162.578125 240.6875 160.839844 C 243.21875 159.097656 243.484375 155.164062 236.488281 154.9375 Z M 236.488281 154.9375 " fill-opacity="1" fill-rule="nonzero"/><path fill="#fffdfa" d="M 195.261719 141.132812 C 194.996094 145.21875 195.261719 148.054688 194.316406 150.023438 C 189.15625 160.757812 193.457031 163.273438 194.75 159.140625 C 195.382812 157.113281 196.09375 155.277344 197.871094 152.632812 C 199.648438 149.984375 200.214844 147.902344 200.859375 143.742188 C 201.503906 139.582031 202.597656 138.863281 206.039062 136.101562 C 209.484375 133.34375 212.355469 130.617188 213.414062 126.042969 C 214.476562 121.464844 212.886719 119.234375 210.769531 118.820312 C 210.769531 118.820312 209.253906 118.589844 209.105469 120.027344 C 208.953125 121.464844 209.519531 125.25 204.488281 128.992188 C 199.460938 132.738281 195.527344 137.046875 195.261719 141.132812 Z M 195.261719 141.132812 " fill-opacity="1" fill-rule="nonzero"/><path fill="#fffdfa" d="M 206.488281 148.203125 C 201.335938 153.1875 197.054688 160.382812 197.5625 165.859375 C 198.070312 171.339844 203.152344 172.828125 208.195312 169.996094 C 213.238281 167.167969 214.90625 162.304688 217.265625 159.078125 C 219.621094 155.847656 221.835938 154.613281 226.1875 153.015625 C 230.542969 151.421875 236.929688 148.808594 235.839844 145.796875 C 234.75 142.785156 228.875 141.550781 223.179688 144.824219 C 217.480469 148.097656 215.378906 154.394531 212.222656 159.292969 C 209.0625 164.191406 206.308594 167.203125 204.238281 167.347656 C 202.171875 167.492188 201.082031 165.605469 202.535156 161.324219 C 204.621094 155.164062 220.40625 144.523438 226.949219 135.566406 C 231.777344 128.960938 229.429688 125.25 227.53125 125.007812 C 223.25 124.464844 221.398438 129.726562 219.003906 133.390625 C 216.609375 137.054688 211.640625 143.222656 206.488281 148.203125 Z M 206.488281 148.203125 " fill-opacity="1" fill-rule="nonzero"/><g transform="matrix(1, 0, 0, 1, 126, 244)"><g clip-path="url(#191d0728d9)"><g fill="#fffdfa" fill-opacity="1"><g transform="translate(0.885002, 10.955561)"><g><path d="M 5.46875 -4.5625 C 5.46875 -4.007812 5.300781 -3.566406 4.96875 -3.234375 C 4.632812 -2.898438 4.195312 -2.734375 3.65625 -2.734375 L 1.625 -2.734375 L 1.625 0 L 0.796875 0 L 0.796875 -6.46875 L 3.46875 -6.46875 C 4.113281 -6.46875 4.609375 -6.300781 4.953125 -5.96875 C 5.296875 -5.632812 5.46875 -5.164062 5.46875 -4.5625 Z M 1.625 -3.453125 L 3.34375 -3.453125 C 3.738281 -3.453125 4.046875 -3.550781 4.265625 -3.75 C 4.492188 -3.957031 4.609375 -4.238281 4.609375 -4.59375 C 4.609375 -4.945312 4.492188 -5.222656 4.265625 -5.421875 C 4.046875 -5.628906 3.738281 -5.734375 3.34375 -5.734375 L 1.625 -5.734375 Z M 1.625 -3.453125 "/></g></g></g><g fill="#fffdfa" fill-opacity="1"><g transform="translate(8.048393, 10.955561)"><g><path d="M 3.03125 -0.515625 C 3.300781 -0.515625 3.535156 -0.539062 3.734375 -0.59375 C 3.941406 -0.644531 4.101562 -0.710938 4.21875 -0.796875 C 4.332031 -0.878906 4.425781 -0.972656 4.5 -1.078125 C 4.570312 -1.191406 4.617188 -1.296875 4.640625 -1.390625 C 4.660156 -1.484375 4.671875 -1.582031 4.671875 -1.6875 C 4.671875 -1.945312 4.570312 -2.160156 4.375 -2.328125 C 4.1875 -2.492188 3.890625 -2.628906 3.484375 -2.734375 L 1.890625 -3.171875 C 1.046875 -3.390625 0.625 -3.890625 0.625 -4.671875 C 0.625 -5.253906 0.828125 -5.710938 1.234375 -6.046875 C 1.648438 -6.390625 2.210938 -6.5625 2.921875 -6.5625 C 3.660156 -6.5625 4.234375 -6.382812 4.640625 -6.03125 C 5.054688 -5.6875 5.269531 -5.195312 5.28125 -4.5625 L 4.5 -4.5625 C 4.488281 -4.976562 4.34375 -5.300781 4.0625 -5.53125 C 3.789062 -5.757812 3.398438 -5.875 2.890625 -5.875 C 2.453125 -5.875 2.097656 -5.773438 1.828125 -5.578125 C 1.566406 -5.378906 1.4375 -5.113281 1.4375 -4.78125 C 1.4375 -4.53125 1.515625 -4.332031 1.671875 -4.1875 C 1.835938 -4.050781 2.113281 -3.929688 2.5 -3.828125 L 4.125 -3.390625 C 4.5625 -3.273438 4.898438 -3.078125 5.140625 -2.796875 C 5.378906 -2.515625 5.5 -2.171875 5.5 -1.765625 C 5.5 -1.597656 5.476562 -1.429688 5.4375 -1.265625 C 5.394531 -1.097656 5.3125 -0.921875 5.1875 -0.734375 C 5.070312 -0.554688 4.921875 -0.398438 4.734375 -0.265625 C 4.554688 -0.128906 4.316406 -0.0195312 4.015625 0.0625 C 3.710938 0.15625 3.367188 0.203125 2.984375 0.203125 C 2.734375 0.203125 2.5 0.179688 2.28125 0.140625 C 2.0625 0.109375 1.835938 0.0390625 1.609375 -0.0625 C 1.378906 -0.164062 1.179688 -0.300781 1.015625 -0.46875 C 0.847656 -0.632812 0.707031 -0.851562 0.59375 -1.125 C 0.476562 -1.394531 0.421875 -1.707031 0.421875 -2.0625 L 1.203125 -2.0625 L 1.203125 -2.015625 C 1.203125 -1.828125 1.226562 -1.648438 1.28125 -1.484375 C 1.34375 -1.328125 1.4375 -1.171875 1.5625 -1.015625 C 1.6875 -0.867188 1.875 -0.75 2.125 -0.65625 C 2.382812 -0.5625 2.6875 -0.515625 3.03125 -0.515625 Z M 3.03125 -0.515625 "/></g></g></g><g fill="#fffdfa" fill-opacity="1"><g transform="translate(15.211785, 10.955561)"><g><path d="M 3.421875 -2.53125 L 3.421875 0 L 2.609375 0 L 2.609375 -2.53125 L 0.125 -6.46875 L 1.125 -6.46875 L 3.03125 -3.3125 L 4.875 -6.46875 L 5.859375 -6.46875 Z M 3.421875 -2.53125 "/></g></g></g><g fill="#fffdfa" fill-opacity="1"><g transform="translate(22.375176, 10.955561)"><g><path d="M 0.421875 -3.15625 C 0.421875 -3.351562 0.429688 -3.554688 0.453125 -3.765625 C 0.484375 -3.972656 0.53125 -4.191406 0.59375 -4.421875 C 0.65625 -4.648438 0.734375 -4.863281 0.828125 -5.0625 C 0.929688 -5.257812 1.0625 -5.453125 1.21875 -5.640625 C 1.375 -5.828125 1.550781 -5.988281 1.75 -6.125 C 1.945312 -6.257812 2.1875 -6.363281 2.46875 -6.4375 C 2.75 -6.519531 3.050781 -6.5625 3.375 -6.5625 C 4.78125 -6.5625 5.609375 -5.859375 5.859375 -4.453125 L 5.015625 -4.453125 C 4.921875 -4.921875 4.734375 -5.269531 4.453125 -5.5 C 4.179688 -5.726562 3.789062 -5.84375 3.28125 -5.84375 C 2.65625 -5.84375 2.160156 -5.601562 1.796875 -5.125 C 1.429688 -4.644531 1.25 -3.992188 1.25 -3.171875 C 1.25 -2.359375 1.4375 -1.710938 1.8125 -1.234375 C 2.195312 -0.753906 2.707031 -0.515625 3.34375 -0.515625 C 3.875 -0.515625 4.28125 -0.664062 4.5625 -0.96875 C 4.851562 -1.269531 5.046875 -1.734375 5.140625 -2.359375 L 6 -2.359375 C 5.800781 -0.648438 4.914062 0.203125 3.34375 0.203125 C 2.96875 0.203125 2.625 0.148438 2.3125 0.046875 C 2.007812 -0.0546875 1.753906 -0.195312 1.546875 -0.375 C 1.335938 -0.550781 1.15625 -0.75 1 -0.96875 C 0.851562 -1.195312 0.738281 -1.441406 0.65625 -1.703125 C 0.570312 -1.960938 0.507812 -2.207031 0.46875 -2.4375 C 0.4375 -2.675781 0.421875 -2.914062 0.421875 -3.15625 Z M 0.421875 -3.15625 "/></g></g></g><g fill="#fffdfa" fill-opacity="1"><g transform="translate(30.025764, 10.955561)"><g><path d="M 4.875 -2.9375 L 1.5625 -2.9375 L 1.5625 0 L 0.734375 0 L 0.734375 -6.46875 L 1.5625 -6.46875 L 1.5625 -3.671875 L 4.875 -3.671875 L 4.875 -6.46875 L 5.703125 -6.46875 L 5.703125 0 L 4.875 0 Z M 4.875 -2.9375 "/></g></g></g><g fill="#fffdfa" fill-opacity="1"><g transform="translate(37.676352, 10.955561)"><g><path d="M 6.578125 -3.125 C 6.578125 -2.664062 6.503906 -2.234375 6.359375 -1.828125 C 6.210938 -1.421875 6.003906 -1.066406 5.734375 -0.765625 C 5.472656 -0.460938 5.144531 -0.222656 4.75 -0.046875 C 4.351562 0.117188 3.921875 0.203125 3.453125 0.203125 C 2.523438 0.203125 1.769531 -0.101562 1.1875 -0.71875 C 0.613281 -1.34375 0.328125 -2.160156 0.328125 -3.171875 C 0.328125 -4.179688 0.613281 -5 1.1875 -5.625 C 1.769531 -6.25 2.523438 -6.5625 3.453125 -6.5625 C 4.398438 -6.5625 5.15625 -6.25 5.71875 -5.625 C 6.289062 -5 6.578125 -4.164062 6.578125 -3.125 Z M 3.453125 -5.84375 C 2.765625 -5.84375 2.207031 -5.597656 1.78125 -5.109375 C 1.363281 -4.617188 1.15625 -3.972656 1.15625 -3.171875 C 1.15625 -2.378906 1.363281 -1.738281 1.78125 -1.25 C 2.207031 -0.757812 2.765625 -0.515625 3.453125 -0.515625 C 4.140625 -0.515625 4.691406 -0.753906 5.109375 -1.234375 C 5.535156 -1.722656 5.75 -2.359375 5.75 -3.140625 C 5.75 -3.953125 5.539062 -4.601562 5.125 -5.09375 C 4.707031 -5.59375 4.148438 -5.84375 3.453125 -5.84375 Z M 3.453125 -5.84375 "/></g></g></g><g fill="#fffdfa" fill-opacity="1"><g transform="translate(45.823993, 10.955561)"><g><path d="M 1.53125 -6.46875 L 1.53125 -0.734375 L 4.71875 -0.734375 L 4.71875 0 L 0.703125 0 L 0.703125 -6.46875 Z M 1.53125 -6.46875 "/></g></g></g><g fill="#fffdfa" fill-opacity="1"><g transform="translate(52.003123, 10.955561)"><g><path d="M 6.578125 -3.125 C 6.578125 -2.664062 6.503906 -2.234375 6.359375 -1.828125 C 6.210938 -1.421875 6.003906 -1.066406 5.734375 -0.765625 C 5.472656 -0.460938 5.144531 -0.222656 4.75 -0.046875 C 4.351562 0.117188 3.921875 0.203125 3.453125 0.203125 C 2.523438 0.203125 1.769531 -0.101562 1.1875 -0.71875 C 0.613281 -1.34375 0.328125 -2.160156 0.328125 -3.171875 C 0.328125 -4.179688 0.613281 -5 1.1875 -5.625 C 1.769531 -6.25 2.523438 -6.5625 3.453125 -6.5625 C 4.398438 -6.5625 5.15625 -6.25 5.71875 -5.625 C 6.289062 -5 6.578125 -4.164062 6.578125 -3.125 Z M 3.453125 -5.84375 C 2.765625 -5.84375 2.207031 -5.597656 1.78125 -5.109375 C 1.363281 -4.617188 1.15625 -3.972656 1.15625 -3.171875 C 1.15625 -2.378906 1.363281 -1.738281 1.78125 -1.25 C 2.207031 -0.757812 2.765625 -0.515625 3.453125 -0.515625 C 4.140625 -0.515625 4.691406 -0.753906 5.109375 -1.234375 C 5.535156 -1.722656 5.75 -2.359375 5.75 -3.140625 C 5.75 -3.953125 5.539062 -4.601562 5.125 -5.09375 C 4.707031 -5.59375 4.148438 -5.84375 3.453125 -5.84375 Z M 3.453125 -5.84375 "/></g></g></g><g fill="#fffdfa" fill-opacity="1"><g transform="translate(60.150764, 10.955561)"><g><path d="M 1.21875 -3.203125 C 1.21875 -2.984375 1.234375 -2.757812 1.265625 -2.53125 C 1.304688 -2.300781 1.378906 -2.0625 1.484375 -1.8125 C 1.597656 -1.570312 1.738281 -1.359375 1.90625 -1.171875 C 2.070312 -0.984375 2.296875 -0.828125 2.578125 -0.703125 C 2.859375 -0.578125 3.175781 -0.515625 3.53125 -0.515625 C 4.113281 -0.515625 4.59375 -0.703125 4.96875 -1.078125 C 5.351562 -1.453125 5.546875 -1.925781 5.546875 -2.5 L 5.546875 -2.6875 L 3.59375 -2.6875 L 3.59375 -3.421875 L 6.28125 -3.421875 L 6.28125 0.03125 L 5.765625 0.03125 L 5.546875 -0.828125 C 5.234375 -0.472656 4.894531 -0.210938 4.53125 -0.046875 C 4.175781 0.117188 3.78125 0.203125 3.34375 0.203125 C 2.769531 0.203125 2.257812 0.0625 1.8125 -0.21875 C 1.363281 -0.507812 1.015625 -0.910156 0.765625 -1.421875 C 0.515625 -1.929688 0.390625 -2.515625 0.390625 -3.171875 C 0.390625 -3.453125 0.414062 -3.734375 0.46875 -4.015625 C 0.519531 -4.296875 0.617188 -4.59375 0.765625 -4.90625 C 0.910156 -5.226562 1.09375 -5.503906 1.3125 -5.734375 C 1.539062 -5.972656 1.84375 -6.171875 2.21875 -6.328125 C 2.59375 -6.484375 3.015625 -6.5625 3.484375 -6.5625 C 4.234375 -6.5625 4.84375 -6.378906 5.3125 -6.015625 C 5.789062 -5.660156 6.082031 -5.15625 6.1875 -4.5 L 5.34375 -4.5 C 5.257812 -4.914062 5.050781 -5.242188 4.71875 -5.484375 C 4.382812 -5.722656 3.972656 -5.84375 3.484375 -5.84375 C 2.804688 -5.84375 2.257812 -5.601562 1.84375 -5.125 C 1.425781 -4.644531 1.21875 -4.003906 1.21875 -3.203125 Z M 1.21875 -3.203125 "/></g></g></g><g fill="#fffdfa" fill-opacity="1"><g transform="translate(68.298405, 10.955561)"><g><path d="M 1.71875 -6.46875 L 1.71875 0 L 0.890625 0 L 0.890625 -6.46875 Z M 1.71875 -6.46875 "/></g></g></g><g fill="#fffdfa" fill-opacity="1"><g transform="translate(72.016906, 10.955561)"><g><path d="M 0.421875 -3.15625 C 0.421875 -3.351562 0.429688 -3.554688 0.453125 -3.765625 C 0.484375 -3.972656 0.53125 -4.191406 0.59375 -4.421875 C 0.65625 -4.648438 0.734375 -4.863281 0.828125 -5.0625 C 0.929688 -5.257812 1.0625 -5.453125 1.21875 -5.640625 C 1.375 -5.828125 1.550781 -5.988281 1.75 -6.125 C 1.945312 -6.257812 2.1875 -6.363281 2.46875 -6.4375 C 2.75 -6.519531 3.050781 -6.5625 3.375 -6.5625 C 4.78125 -6.5625 5.609375 -5.859375 5.859375 -4.453125 L 5.015625 -4.453125 C 4.921875 -4.921875 4.734375 -5.269531 4.453125 -5.5 C 4.179688 -5.726562 3.789062 -5.84375 3.28125 -5.84375 C 2.65625 -5.84375 2.160156 -5.601562 1.796875 -5.125 C 1.429688 -4.644531 1.25 -3.992188 1.25 -3.171875 C 1.25 -2.359375 1.4375 -1.710938 1.8125 -1.234375 C 2.195312 -0.753906 2.707031 -0.515625 3.34375 -0.515625 C 3.875 -0.515625 4.28125 -0.664062 4.5625 -0.96875 C 4.851562 -1.269531 5.046875 -1.734375 5.140625 -2.359375 L 6 -2.359375 C 5.800781 -0.648438 4.914062 0.203125 3.34375 0.203125 C 2.96875 0.203125 2.625 0.148438 2.3125 0.046875 C 2.007812 -0.0546875 1.753906 -0.195312 1.546875 -0.375 C 1.335938 -0.550781 1.15625 -0.75 1 -0.96875 C 0.851562 -1.195312 0.738281 -1.441406 0.65625 -1.703125 C 0.570312 -1.960938 0.507812 -2.207031 0.46875 -2.4375 C 0.4375 -2.675781 0.421875 -2.914062 0.421875 -3.15625 Z M 0.421875 -3.15625 "/></g></g></g><g fill="#fffdfa" fill-opacity="1"><g transform="translate(79.667494, 10.955561)"><g><path d="M 4.203125 -1.9375 L 1.71875 -1.9375 L 1.03125 0 L 0.15625 0 L 2.453125 -6.46875 L 3.515625 -6.46875 L 5.78125 0 L 4.875 0 Z M 3.96875 -2.640625 L 2.984375 -5.578125 L 1.921875 -2.640625 Z M 3.96875 -2.640625 "/></g></g></g><g fill="#fffdfa" fill-opacity="1"><g transform="translate(86.830885, 10.955561)"><g><path d="M 1.53125 -6.46875 L 1.53125 -0.734375 L 4.71875 -0.734375 L 4.71875 0 L 0.703125 0 L 0.703125 -6.46875 Z M 1.53125 -6.46875 "/></g></g></g><g fill="#fffdfa" fill-opacity="1"><g transform="translate(93.010016, 10.955561)"><g/></g></g><g fill="#fffdfa" fill-opacity="1"><g transform="translate(96.728517, 10.955561)"><g><path d="M 0.421875 -3.15625 C 0.421875 -3.351562 0.429688 -3.554688 0.453125 -3.765625 C 0.484375 -3.972656 0.53125 -4.191406 0.59375 -4.421875 C 0.65625 -4.648438 0.734375 -4.863281 0.828125 -5.0625 C 0.929688 -5.257812 1.0625 -5.453125 1.21875 -5.640625 C 1.375 -5.828125 1.550781 -5.988281 1.75 -6.125 C 1.945312 -6.257812 2.1875 -6.363281 2.46875 -6.4375 C 2.75 -6.519531 3.050781 -6.5625 3.375 -6.5625 C 4.78125 -6.5625 5.609375 -5.859375 5.859375 -4.453125 L 5.015625 -4.453125 C 4.921875 -4.921875 4.734375 -5.269531 4.453125 -5.5 C 4.179688 -5.726562 3.789062 -5.84375 3.28125 -5.84375 C 2.65625 -5.84375 2.160156 -5.601562 1.796875 -5.125 C 1.429688 -4.644531 1.25 -3.992188 1.25 -3.171875 C 1.25 -2.359375 1.4375 -1.710938 1.8125 -1.234375 C 2.195312 -0.753906 2.707031 -0.515625 3.34375 -0.515625 C 3.875 -0.515625 4.28125 -0.664062 4.5625 -0.96875 C 4.851562 -1.269531 5.046875 -1.734375 5.140625 -2.359375 L 6 -2.359375 C 5.800781 -0.648438 4.914062 0.203125 3.34375 0.203125 C 2.96875 0.203125 2.625 0.148438 2.3125 0.046875 C 2.007812 -0.0546875 1.753906 -0.195312 1.546875 -0.375 C 1.335938 -0.550781 1.15625 -0.75 1 -0.96875 C 0.851562 -1.195312 0.738281 -1.441406 0.65625 -1.703125 C 0.570312 -1.960938 0.507812 -2.207031 0.46875 -2.4375 C 0.4375 -2.675781 0.421875 -2.914062 0.421875 -3.15625 Z M 0.421875 -3.15625 "/></g></g></g><g fill="#fffdfa" fill-opacity="1"><g transform="translate(104.379105, 10.955561)"><g><path d="M 4.203125 -1.9375 L 1.71875 -1.9375 L 1.03125 0 L 0.15625 0 L 2.453125 -6.46875 L 3.515625 -6.46875 L 5.78125 0 L 4.875 0 Z M 3.96875 -2.640625 L 2.984375 -5.578125 L 1.921875 -2.640625 Z M 3.96875 -2.640625 "/></g></g></g><g fill="#fffdfa" fill-opacity="1"><g transform="translate(111.542496, 10.955561)"><g><path d="M 4.75 -3.1875 C 4.96875 -3.09375 5.140625 -2.976562 5.265625 -2.84375 C 5.398438 -2.707031 5.488281 -2.5625 5.53125 -2.40625 C 5.582031 -2.25 5.613281 -2.085938 5.625 -1.921875 C 5.632812 -1.753906 5.632812 -1.585938 5.625 -1.421875 C 5.625 -1.253906 5.625 -1.097656 5.625 -0.953125 C 5.632812 -0.804688 5.671875 -0.664062 5.734375 -0.53125 C 5.796875 -0.394531 5.890625 -0.285156 6.015625 -0.203125 L 6.015625 0 L 5.015625 0 C 4.898438 -0.28125 4.84375 -0.628906 4.84375 -1.046875 L 4.84375 -1.625 C 4.84375 -2.03125 4.753906 -2.320312 4.578125 -2.5 C 4.410156 -2.6875 4.144531 -2.78125 3.78125 -2.78125 L 1.65625 -2.78125 L 1.65625 0 L 0.828125 0 L 0.828125 -6.46875 L 3.796875 -6.46875 C 4.429688 -6.46875 4.914062 -6.316406 5.25 -6.015625 C 5.59375 -5.710938 5.765625 -5.285156 5.765625 -4.734375 C 5.765625 -4.359375 5.6875 -4.050781 5.53125 -3.8125 C 5.375 -3.570312 5.113281 -3.363281 4.75 -3.1875 Z M 4.90625 -4.609375 C 4.90625 -4.835938 4.875 -5.023438 4.8125 -5.171875 C 4.75 -5.328125 4.65625 -5.441406 4.53125 -5.515625 C 4.40625 -5.597656 4.269531 -5.65625 4.125 -5.6875 C 3.988281 -5.71875 3.828125 -5.734375 3.640625 -5.734375 L 1.65625 -5.734375 L 1.65625 -3.515625 L 3.640625 -3.515625 C 4.078125 -3.515625 4.394531 -3.601562 4.59375 -3.78125 C 4.800781 -3.957031 4.90625 -4.234375 4.90625 -4.609375 Z M 4.90625 -4.609375 "/></g></g></g><g fill="#fffdfa" fill-opacity="1"><g transform="translate(119.193084, 10.955561)"><g><path d="M 1.625 -2.9375 L 1.625 -0.734375 L 5.4375 -0.734375 L 5.4375 0 L 0.796875 0 L 0.796875 -6.46875 L 5.265625 -6.46875 L 5.265625 -5.734375 L 1.625 -5.734375 L 1.625 -3.671875 L 5.140625 -3.671875 L 5.140625 -2.9375 Z M 1.625 -2.9375 "/></g></g></g></g></g></svg>